<svg xmlns="http://www.w3.org/2000/svg" width="1280.5" height="721.5" viewBox="0 0 1280.5 721.5">
  <g id="background" transform="translate(0.5 0.5)" opacity="0.06">
    <path id="Subtração_4" data-name="Subtração 4" d="M134.31,721h-7.621A25.645,25.645,0,0,1,130,713.037a25.908,25.908,0,0,1,5.635-6.348,25.6,25.6,0,0,1,32.264,0,25.909,25.909,0,0,1,5.635,6.348A25.646,25.646,0,0,1,176.837,721h-7.62a18.362,18.362,0,0,0-34.907,0Zm-37.422-7.095H74.841a3.684,3.684,0,0,1-3.675-3.685v-8.329a26.2,26.2,0,0,1-8.006-9.044,25.728,25.728,0,1,1,45.409,0,26.205,26.205,0,0,1-8.006,9.044v8.329A3.684,3.684,0,0,1,96.888,713.905ZM85.864,662.31a18.417,18.417,0,0,0-10.472,33.536l3.123,2.211v8.477h14.7v-8.477l3.124-2.211A18.417,18.417,0,0,0,85.864,662.31ZM217,710.606h-6.255a3.685,3.685,0,0,1-3.675-3.686v-3.685H217v7.37Zm0-14.741h-9.93a3.685,3.685,0,0,1-3.675-3.686v-8.328a26.211,26.211,0,0,1-8.006-9.044A25.8,25.8,0,0,1,217,636.922v7.38a18.419,18.419,0,0,0-9.379,33.5l3.123,2.211v8.477H217v7.37Zm-63.888-49.348h-14.7a3.684,3.684,0,0,1-3.675-3.685v-3.686h22.048v3.686A3.684,3.684,0,0,1,153.112,646.518Zm-120.041,0h-14.7a3.684,3.684,0,0,1-3.675-3.685v-3.686H36.746v3.686A3.684,3.684,0,0,1,33.071,646.518Zm123.716-14.743H134.739a3.684,3.684,0,0,1-3.675-3.685v-8.329a26.2,26.2,0,0,1-8.006-9.043,25.728,25.728,0,1,1,45.409,0,26.2,26.2,0,0,1-8.006,9.043v8.329A3.684,3.684,0,0,1,156.787,631.775ZM145.763,580.18a18.417,18.417,0,0,0-10.472,33.537l3.123,2.211v8.477h14.7v-8.477l3.123-2.211a18.418,18.418,0,0,0-10.472-33.537ZM36.746,631.775H14.7a3.684,3.684,0,0,1-3.675-3.685v-8.329a26.2,26.2,0,0,1-8.006-9.043,25.728,25.728,0,1,1,45.409,0,26.2,26.2,0,0,1-8.006,9.043v8.329A3.684,3.684,0,0,1,36.746,631.775ZM25.723,580.18a18.418,18.418,0,0,0-10.473,33.537l3.124,2.211v8.477h14.7v-8.477l3.124-2.211A18.418,18.418,0,0,0,25.723,580.18Zm190.635-6.416h-14.7a3.684,3.684,0,0,1-3.674-3.685v-3.685H217v7.314A3.667,3.667,0,0,1,216.358,573.765ZM93.214,564.388h-14.7a3.684,3.684,0,0,1-3.674-3.686v-3.685H96.888V560.7A3.685,3.685,0,0,1,93.214,564.388ZM217,559.023H197.985a3.684,3.684,0,0,1-3.675-3.684v-8.329a26.206,26.206,0,0,1-8.006-9.043A25.748,25.748,0,0,1,217,501.332v7.929a18.145,18.145,0,0,0-7.991-1.832,18.417,18.417,0,0,0-10.472,33.536l3.123,2.211v8.477h14.7v-8.477l.642-.454v16.3ZM96.888,549.647H74.841a3.685,3.685,0,0,1-3.675-3.686v-8.328a26.211,26.211,0,0,1-8.006-9.044,25.728,25.728,0,1,1,45.409,0,26.21,26.21,0,0,1-8.006,9.044v8.328A3.685,3.685,0,0,1,96.888,549.647Zm-11.024-51.6a18.417,18.417,0,0,0-10.472,33.536l3.123,2.211v8.477h14.7V533.8l3.124-2.211a18.417,18.417,0,0,0-10.473-33.536Zm70.351-6.415h-14.7a3.684,3.684,0,0,1-3.675-3.685v-3.686H159.89v3.686A3.684,3.684,0,0,1,156.215,491.636Zm3.675-14.742H137.843a3.684,3.684,0,0,1-3.675-3.685V464.88a26.2,26.2,0,0,1-8.006-9.043,25.728,25.728,0,1,1,45.409,0,26.2,26.2,0,0,1-8.006,9.043v8.329A3.684,3.684,0,0,1,159.89,476.895ZM148.867,425.3a18.417,18.417,0,0,0-10.473,33.536l3.124,2.211v8.477h14.7v-8.477l3.124-2.211A18.417,18.417,0,0,0,148.867,425.3Zm67.491-15.793h-14.7a3.684,3.684,0,0,1-3.674-3.686v-3.685H217v7.314A3.659,3.659,0,0,1,216.358,409.507ZM217,394.765H197.985a3.684,3.684,0,0,1-3.675-3.685v-8.329a26.2,26.2,0,0,1-8.006-9.043A25.748,25.748,0,0,1,217,337.074V345a18.144,18.144,0,0,0-7.991-1.832,18.418,18.418,0,0,0-10.472,33.537l3.123,2.211V387.4h14.7v-8.477l.642-.454v16.3ZM159.112,336.1h-14.7a3.684,3.684,0,0,1-3.674-3.685v-3.685h22.047v3.685A3.684,3.684,0,0,1,159.112,336.1Zm3.675-14.742H140.74a3.684,3.684,0,0,1-3.675-3.685v-8.329a26.2,26.2,0,0,1-8.006-9.043,25.728,25.728,0,1,1,45.409,0,26.2,26.2,0,0,1-8.006,9.043v8.329A3.684,3.684,0,0,1,162.787,321.361Zm-11.024-51.595A18.417,18.417,0,0,0,141.29,303.3l3.123,2.211v8.477h14.7v-8.477l3.124-2.211a18.417,18.417,0,0,0-10.473-33.536ZM217,253.973H204.312a3.684,3.684,0,0,1-3.675-3.685V246.6H217v7.37Zm-118.03,0h-14.7a3.684,3.684,0,0,1-3.675-3.685V246.6h22.047v3.686A3.684,3.684,0,0,1,98.97,253.973ZM217,239.232H200.637a3.684,3.684,0,0,1-3.675-3.685v-8.329a26.2,26.2,0,0,1-8.006-9.043A25.756,25.756,0,0,1,217,180.824v7.6a18.41,18.41,0,0,0-15.811,32.745l3.123,2.211v8.477H217v7.369Zm-114.356,0H80.6a3.684,3.684,0,0,1-3.675-3.685v-8.329a26.2,26.2,0,0,1-8.006-9.043,25.728,25.728,0,1,1,45.409,0,26.2,26.2,0,0,1-8.006,9.043v8.329A3.684,3.684,0,0,1,102.644,239.232ZM91.621,187.637a18.417,18.417,0,0,0-10.473,33.536l3.124,2.211v8.477h14.7v-8.477l3.124-2.211a18.417,18.417,0,0,0-10.472-33.536Zm67.491-15.793h-14.7a3.684,3.684,0,0,1-3.674-3.686v-3.685h22.047v3.685A3.685,3.685,0,0,1,159.112,171.844Zm3.675-14.742H140.74a3.684,3.684,0,0,1-3.675-3.685v-8.329a26.2,26.2,0,0,1-8.006-9.043,25.728,25.728,0,1,1,45.409,0,26.2,26.2,0,0,1-8.006,9.043v8.329A3.684,3.684,0,0,1,162.787,157.1Zm-11.024-51.6a18.418,18.418,0,0,0-10.472,33.537l3.123,2.211v8.477h14.7v-8.477l3.124-2.211a18.418,18.418,0,0,0-10.473-33.537Zm-58.549,20.3h-14.7a3.684,3.684,0,0,1-3.674-3.685V118.44H96.888v3.686A3.684,3.684,0,0,1,93.214,125.811Zm3.675-14.742H74.841a3.684,3.684,0,0,1-3.675-3.685V99.055a26.2,26.2,0,0,1-8.006-9.043,25.728,25.728,0,1,1,45.409,0,26.2,26.2,0,0,1-8.006,9.043v8.329A3.684,3.684,0,0,1,96.888,111.069ZM85.864,59.475A18.417,18.417,0,0,0,75.392,93.011l3.123,2.211V103.7h14.7V95.222l3.124-2.211A18.417,18.417,0,0,0,85.864,59.475ZM217,107.77h-6.255a3.684,3.684,0,0,1-3.675-3.685V100.4H217v7.369Zm0-14.741h-9.93a3.685,3.685,0,0,1-3.675-3.686V81.015a26.2,26.2,0,0,1-8.006-9.043A25.8,25.8,0,0,1,217,34.087v7.38a18.419,18.419,0,0,0-9.379,33.5l3.123,2.211v8.476H217v7.37ZM153.112,43.682h-14.7A3.685,3.685,0,0,1,134.739,40V36.311h22.048V40A3.685,3.685,0,0,1,153.112,43.682Zm-120.041,0h-14.7A3.685,3.685,0,0,1,14.7,40V36.311H36.746V40A3.685,3.685,0,0,1,33.071,43.682ZM156.787,28.94H134.739a3.684,3.684,0,0,1-3.675-3.685V16.926a26,26,0,0,1-6.991-7.308A25.491,25.491,0,0,1,120.385,0h7.5a18.445,18.445,0,0,0,7.408,10.882l3.123,2.211V21.57h14.7V13.093l3.123-2.211A18.447,18.447,0,0,0,163.642,0h7.5a25.49,25.49,0,0,1-3.688,9.618,26,26,0,0,1-6.991,7.308v8.329A3.684,3.684,0,0,1,156.787,28.94Zm-120.041,0H14.7a3.684,3.684,0,0,1-3.675-3.685V16.926A26,26,0,0,1,4.033,9.618,25.492,25.492,0,0,1,.345,0h7.5a18.446,18.446,0,0,0,7.407,10.882l3.124,2.211V21.57h14.7V13.093L36.2,10.882A18.447,18.447,0,0,0,43.6,0h7.5a25.49,25.49,0,0,1-3.688,9.618,26,26,0,0,1-6.991,7.308v8.329A3.684,3.684,0,0,1,36.746,28.94Z" transform="translate(1063)" fill="#707070"/>
    <path id="Subtração_3" data-name="Subtração 3" d="M174.4,721.057h-7.751a25.623,25.623,0,0,1,3.474-7.586,25.9,25.9,0,0,1,12.925-9.992,25.7,25.7,0,0,1,24.249,3.97,25.906,25.906,0,0,1,5.628,6.022,25.621,25.621,0,0,1,3.475,7.585h-7.751a18.418,18.418,0,0,0-34.248,0Zm-126.068,0H40.58a25.622,25.622,0,0,1,3.474-7.586,25.9,25.9,0,0,1,12.925-9.992,25.7,25.7,0,0,1,24.249,3.97,25.906,25.906,0,0,1,5.628,6.022,25.606,25.606,0,0,1,3.474,7.585h-7.75a18.418,18.418,0,0,0-34.248,0Zm94.206-6.089H120.443a3.686,3.686,0,0,1-3.682-3.683v-8.322a26.2,26.2,0,0,1-8.022-9.035,25.79,25.79,0,1,1,45.5,0,26.2,26.2,0,0,1-8.023,9.035v8.322A3.686,3.686,0,0,1,142.537,714.968ZM131.49,663.416A18.391,18.391,0,0,0,121,696.925l3.13,2.209V707.6h14.729v-8.469l3.13-2.209a18.391,18.391,0,0,0-10.494-33.509ZM6.351,711.672H0v-7.364H10.033v3.683A3.686,3.686,0,0,1,6.351,711.672Zm3.682-14.729H0v-7.364H6.351v-8.469l3.13-2.209A18.42,18.42,0,0,0,17.4,663.8,18.405,18.405,0,0,0,0,645.419v-7.373a25.641,25.641,0,0,1,17.536,7.875A25.639,25.639,0,0,1,24.762,663.8a25.762,25.762,0,0,1-.789,6.342,25.534,25.534,0,0,1-2.235,5.758,26.2,26.2,0,0,1-8.023,9.035v8.322A3.687,3.687,0,0,1,10.033,696.943Zm189.089-49.306H184.393a3.686,3.686,0,0,1-3.683-3.682v-3.683H202.8v3.683A3.686,3.686,0,0,1,199.122,647.637Zm-120.289,0H64.1a3.686,3.686,0,0,1-3.683-3.682v-3.683H82.514v3.683A3.686,3.686,0,0,1,78.832,647.637ZM202.8,632.908H180.71a3.686,3.686,0,0,1-3.682-3.682V620.9a26.207,26.207,0,0,1-8.023-9.035,25.79,25.79,0,1,1,45.5,0,26.2,26.2,0,0,1-8.023,9.035v8.323A3.686,3.686,0,0,1,202.8,632.908Zm-11.047-51.551a18.391,18.391,0,0,0-10.494,33.508l3.13,2.209v8.469h14.729v-8.469l3.13-2.209a18.391,18.391,0,0,0-10.494-33.508ZM82.514,632.908H60.421a3.686,3.686,0,0,1-3.682-3.682V620.9a26.207,26.207,0,0,1-8.023-9.035,25.79,25.79,0,1,1,45.5,0A26.2,26.2,0,0,1,86.2,620.9v8.323A3.686,3.686,0,0,1,82.514,632.908ZM71.468,581.357a18.391,18.391,0,0,0-10.495,33.508l3.131,2.209v8.469H78.832v-8.469l3.13-2.209a18.391,18.391,0,0,0-10.494-33.508Zm-56.013-6.41H.726A3.691,3.691,0,0,1,0,574.875v-7.292H19.136v3.682A3.686,3.686,0,0,1,15.455,574.947Zm123.4-9.369H124.126a3.687,3.687,0,0,1-3.683-3.683v-3.682h22.094V561.9A3.687,3.687,0,0,1,138.855,565.578Zm-119.718-5.36H0V543.872l.726.512v8.469H15.455v-8.469l3.13-2.209A18.392,18.392,0,0,0,8.09,508.666,18.219,18.219,0,0,0,0,510.536V502.6A25.788,25.788,0,0,1,33.077,533.42a25.534,25.534,0,0,1-2.235,5.758,26.2,26.2,0,0,1-8.023,9.035v8.322A3.687,3.687,0,0,1,19.136,560.218Zm123.4-9.369H120.443a3.686,3.686,0,0,1-3.682-3.683v-8.322a26.2,26.2,0,0,1-8.022-9.035,25.79,25.79,0,1,1,45.5,0,26.191,26.191,0,0,1-8.023,9.035v8.322A3.686,3.686,0,0,1,142.537,550.849ZM131.49,499.3A18.391,18.391,0,0,0,121,532.806l3.13,2.209v8.469h14.729v-8.469l3.13-2.209A18.391,18.391,0,0,0,131.49,499.3Zm-55.768-6.41H60.993A3.686,3.686,0,0,1,57.31,489.2v-3.683H79.4V489.2A3.686,3.686,0,0,1,75.722,492.886ZM79.4,478.158H57.31a3.686,3.686,0,0,1-3.682-3.682v-8.323a26.2,26.2,0,0,1-8.023-9.035,25.79,25.79,0,1,1,45.5,0,26.2,26.2,0,0,1-8.023,9.035v8.323A3.686,3.686,0,0,1,79.4,478.158ZM68.357,426.606a18.391,18.391,0,0,0-10.495,33.508l3.131,2.209v8.469H75.722v-8.469l3.13-2.209a18.391,18.391,0,0,0-10.494-33.508Zm-52.9-15.779H.726A3.691,3.691,0,0,1,0,410.755v-7.292H19.136v3.682A3.686,3.686,0,0,1,15.455,410.827ZM19.136,396.1H0V379.752l.726.512v8.47H15.455v-8.47l3.13-2.209A18.392,18.392,0,0,0,8.09,344.546,18.225,18.225,0,0,0,0,346.417v-7.934A25.787,25.787,0,0,1,33.077,369.3a25.559,25.559,0,0,1-2.235,5.759,26.2,26.2,0,0,1-8.023,9.035v8.322A3.687,3.687,0,0,1,19.136,396.1Zm48.346-48.608H52.753a3.687,3.687,0,0,1-3.683-3.683v-3.682H71.165v3.682A3.687,3.687,0,0,1,67.482,347.491Zm3.683-14.729H49.071a3.686,3.686,0,0,1-3.682-3.683v-8.322a26.214,26.214,0,0,1-8.023-9.035,25.79,25.79,0,1,1,45.5,0,26.191,26.191,0,0,1-8.023,9.035v8.322A3.686,3.686,0,0,1,71.165,332.762ZM60.118,281.21a18.391,18.391,0,0,0-10.494,33.509l3.13,2.209V325.4H67.482v-8.469l3.13-2.209A18.391,18.391,0,0,0,60.118,281.21ZM127.75,265.43H113.021a3.686,3.686,0,0,1-3.683-3.682v-3.683h22.094v3.683A3.686,3.686,0,0,1,127.75,265.43Zm-120.29,0H0v-7.364H11.142v3.683A3.686,3.686,0,0,1,7.46,265.43ZM131.432,250.7H109.338a3.686,3.686,0,0,1-3.682-3.682V238.7a26.207,26.207,0,0,1-8.023-9.035,25.79,25.79,0,1,1,45.5,0,26.2,26.2,0,0,1-8.023,9.035v8.323A3.686,3.686,0,0,1,131.432,250.7ZM120.385,199.15a18.391,18.391,0,0,0-10.494,33.508l3.13,2.209v8.469H127.75v-8.469l3.13-2.209a18.391,18.391,0,0,0-10.494-33.508ZM11.142,250.7H0v-7.364H7.46v-8.469l3.13-2.209a18.42,18.42,0,0,0,7.917-15.1A18.432,18.432,0,0,0,.1,199.15H0v-7.364H.1a25.8,25.8,0,0,1,25.776,25.775,25.762,25.762,0,0,1-.789,6.342,25.534,25.534,0,0,1-2.235,5.758,26.2,26.2,0,0,1-8.023,9.035v8.323A3.686,3.686,0,0,1,11.142,250.7Zm56.34-67.33H52.753a3.687,3.687,0,0,1-3.683-3.683v-3.682H71.165v3.682A3.687,3.687,0,0,1,67.482,183.371Zm3.683-14.729H49.071a3.686,3.686,0,0,1-3.682-3.683v-8.322a26.213,26.213,0,0,1-8.023-9.035,25.79,25.79,0,1,1,45.5,0,26.2,26.2,0,0,1-8.023,9.035v8.322A3.686,3.686,0,0,1,71.165,168.642ZM60.118,117.09A18.391,18.391,0,0,0,49.624,150.6l3.13,2.209v8.469H67.482v-8.469l3.13-2.209A18.391,18.391,0,0,0,60.118,117.09Zm73.4,20.286H118.789a3.686,3.686,0,0,1-3.683-3.682v-3.683H137.2v3.683A3.686,3.686,0,0,1,133.518,137.376Zm3.683-14.729H115.107a3.686,3.686,0,0,1-3.682-3.682v-8.323a26.214,26.214,0,0,1-8.023-9.035,25.79,25.79,0,1,1,45.5,0,26.191,26.191,0,0,1-8.023,9.035v8.323A3.686,3.686,0,0,1,137.2,122.647ZM126.154,71.1A18.391,18.391,0,0,0,115.66,104.6l3.13,2.209v8.469h14.729v-8.469l3.13-2.209A18.391,18.391,0,0,0,126.154,71.1ZM1.014,119.351H0v-7.364H4.7v3.682A3.686,3.686,0,0,1,1.014,119.351ZM4.7,104.623H0V97.258H1.014V88.789l3.13-2.209a18.42,18.42,0,0,0,7.917-15.1A18.484,18.484,0,0,0,0,54.2V46.5a25.616,25.616,0,0,1,7.74,3.409A25.945,25.945,0,0,1,13.9,55.544a25.729,25.729,0,0,1,4.064,7.36,25.651,25.651,0,0,1,1.467,8.578,25.762,25.762,0,0,1-.789,6.342A25.534,25.534,0,0,1,16.4,83.583a26.191,26.191,0,0,1-8.023,9.035v8.322A3.687,3.687,0,0,1,4.7,104.623ZM198.455,55.317H183.726a3.687,3.687,0,0,1-3.683-3.683V47.952h22.093v3.682A3.686,3.686,0,0,1,198.455,55.317Zm-124.959,0H58.767a3.687,3.687,0,0,1-3.683-3.683V47.952H77.178v3.682A3.686,3.686,0,0,1,73.5,55.317ZM202.137,40.588H180.043a3.686,3.686,0,0,1-3.682-3.683V28.583a26.214,26.214,0,0,1-8.023-9.035A25.766,25.766,0,0,1,166.411,0h7.842a18.234,18.234,0,0,0-1.574,7.448,18.421,18.421,0,0,0,7.917,15.1l3.13,2.209v8.469h14.729V24.754l3.13-2.209A18.368,18.368,0,0,0,207.928,0h7.842a25.675,25.675,0,0,1-1.927,19.548,26.191,26.191,0,0,1-8.023,9.035v8.322A3.687,3.687,0,0,1,202.137,40.588Zm-124.959,0H55.084A3.686,3.686,0,0,1,51.4,36.905V28.583a26.214,26.214,0,0,1-8.023-9.035A25.766,25.766,0,0,1,41.452,0h7.842A18.234,18.234,0,0,0,47.72,7.448a18.423,18.423,0,0,0,7.917,15.1l3.131,2.209v8.469H73.5V24.754l3.13-2.209a18.42,18.42,0,0,0,7.917-15.1A18.237,18.237,0,0,0,82.968,0h7.843a25.675,25.675,0,0,1-1.927,19.548,26.191,26.191,0,0,1-8.023,9.035v8.322A3.687,3.687,0,0,1,77.178,40.588Z" transform="translate(-0.5 -0.5)" fill="#707070"/>
  </g>
</svg>
