<svg id="Grupo_18" data-name="Grupo 18" xmlns="http://www.w3.org/2000/svg" width="234.264" height="42.269" viewBox="0 0 234.264 42.269">
  <rect id="Retângulo_2" data-name="Retângulo 2" width="152" height="25" rx="12.5" transform="translate(48.264 8.596)" fill="#fff"/>
  <rect id="Retângulo_3" data-name="Retângulo 3" width="26" height="25" rx="12.5" transform="translate(208.264 8.596)" fill="#ff6d0b"/>
  <path id="União_1" data-name="União 1" d="M2.825,29.6a20.594,20.594,0,1,1,9.418,9.488L0,42.269Z" transform="translate(0)" fill="#fff"/>
  <path id="Icon_ionic-logo-whatsapp" data-name="Icon ionic-logo-whatsapp" d="M20.608,2.25A17.635,17.635,0,0,0,2.9,19.816a17.385,17.385,0,0,0,2.54,9.071l-3.2,9.424,9.8-3.114a17.733,17.733,0,0,0,26.26-15.381A17.635,17.635,0,0,0,20.608,2.25Zm8.8,24.237a4.573,4.573,0,0,1-3.131,2.018c-.83.044-.854.643-5.38-1.323s-7.249-6.749-7.463-7.057a8.682,8.682,0,0,1-1.67-4.705,5.016,5.016,0,0,1,1.723-3.681,1.734,1.734,0,0,1,1.226-.516c.356-.006.587-.011.851,0s.659-.055,1,.856,1.163,3.152,1.267,3.38a.82.82,0,0,1,.008.787,3.074,3.074,0,0,1-.48.731c-.236.253-.5.567-.708.761-.235.215-.481.449-.233.907a13.547,13.547,0,0,0,2.4,3.2,12.351,12.351,0,0,0,3.55,2.36c.444.242.709.215.984-.075s1.178-1.267,1.5-1.7.617-.352,1.026-.187,2.588,1.333,3.032,1.574.74.365.846.555A3.718,3.718,0,0,1,29.41,26.487Z" transform="translate(0.805 0.407)" fill="#01c84b"/>
  <text id="Chama_no_zap_" data-name="Chama no zap!" transform="translate(111.264 26.596)" fill="#707070" font-size="15" font-family="OpenSans-SemiBold, Open Sans" font-weight="600"><tspan x="-53.302" y="0">Chama no zap!</tspan></text>
  <path id="Icon_material-send" data-name="Icon material-send" d="M3.015,16.036l13.452-5.768L3.015,4.5l1.01,4.37.265,1.371-.265,1.264Z" transform="translate(213.121 10.559)" fill="#fff"/>
</svg>
