<svg xmlns="http://www.w3.org/2000/svg" xmlns:xlink="http://www.w3.org/1999/xlink" width="41.508" height="40.003" viewBox="0 0 41.508 40.003">
  <defs>
    <linearGradient id="linear-gradient" x1="1" x2="0.089" y2="1" gradientUnits="objectBoundingBox">
      <stop offset="0" stop-color="#9138b6"/>
      <stop offset="0.314" stop-color="#e42572"/>
      <stop offset="0.653" stop-color="#fd0828"/>
      <stop offset="1" stop-color="#fece00"/>
    </linearGradient>
  </defs>
  <g id="Grupo_1411" data-name="Grupo 1411" transform="translate(-593.411 -902.29)">
    <g id="Grupo_13" data-name="Grupo 13" transform="translate(593.411 902.29)">
      <g id="Grupo_12" data-name="Grupo 12">
        <path id="Icon_awesome-twitter-square" data-name="Icon awesome-twitter-square" d="M37.061,2.25H4.447A4.37,4.37,0,0,0,0,6.536V37.966a4.37,4.37,0,0,0,4.447,4.286H37.061a4.37,4.37,0,0,0,4.447-4.286V6.536A4.37,4.37,0,0,0,37.061,2.25Z" transform="translate(0 -2.25)" fill="url(#linear-gradient)"/>
      </g>
      <g id="Icon_feather-instagram" data-name="Icon feather-instagram" transform="translate(7.086 7.086)">
        <path id="Caminho_2" data-name="Caminho 2" d="M9.643,3H22.93a6.643,6.643,0,0,1,6.643,6.643V22.93a6.643,6.643,0,0,1-6.643,6.643H9.643A6.643,6.643,0,0,1,3,22.93V9.643A6.643,6.643,0,0,1,9.643,3Z" transform="translate(-3 -3)" fill="none" stroke="#fff" stroke-linecap="round" stroke-linejoin="round" stroke-width="3"/>
        <path id="Caminho_3" data-name="Caminho 3" d="M22.637,16.47a5.315,5.315,0,1,1-4.478-4.478,5.315,5.315,0,0,1,4.478,4.478Z" transform="translate(-4.035 -4.02)" fill="none" stroke="#fff" stroke-linecap="round" stroke-linejoin="round" stroke-width="3"/>
        <path id="Caminho_4" data-name="Caminho 4" d="M26.25,9.75h0" transform="translate(-5.655 -3.771)" fill="none" stroke="#fff" stroke-linecap="round" stroke-linejoin="round" stroke-width="3"/>
      </g>
    </g>
  </g>
</svg>
