<svg xmlns="http://www.w3.org/2000/svg" width="67" height="67" viewBox="0 0 67 67">
  <g id="Grupo_1418" data-name="Grupo 1418" transform="translate(-154 -241)">
    <path id="Exclusão_1" data-name="Exclusão 1" d="M33.5,67A33.509,33.509,0,0,1,20.46,2.633,33.509,33.509,0,0,1,46.54,64.367,33.291,33.291,0,0,1,33.5,67Zm0-63.989A30.489,30.489,0,1,0,63.988,33.5,30.523,30.523,0,0,0,33.5,3.011Z" transform="translate(154 241)" fill="#ff585a"/>
    <path id="Icon_ionic-md-close" data-name="Icon ionic-md-close" d="M36.261,10.4,33.388,7.523l-11.5,11.5L10.4,7.523,7.523,10.4l11.5,11.5-11.5,11.5L10.4,36.261l11.5-11.5,11.5,11.5,2.874-2.874-11.5-11.5Z" transform="translate(165.477 252.477)" fill="#ff585a"/>
  </g>
</svg>
